<?xml version="1.0" encoding="UTF-8" standalone="no"?>
<!DOCTYPE svg PUBLIC "-//W3C//DTD SVG 1.1//EN"
 "http://www.w3.org/Graphics/SVG/1.1/DTD/svg11.dtd">
<!-- Generated by graphviz version 2.47.3 (0)
 -->
<!-- Pages: 1 -->
<svg width="989pt" height="489pt"
 viewBox="0.00 0.00 988.57 488.87" xmlns="http://www.w3.org/2000/svg" xmlns:xlink="http://www.w3.org/1999/xlink">
<g id="graph0" class="graph" transform="scale(1 1) rotate(0) translate(4 484.87)">
<polygon fill="white" stroke="transparent" points="-4,4 -4,-484.87 984.57,-484.87 984.57,4 -4,4"/>
<!-- _start -->
<g id="node1" class="node">
<title>_start</title>
<text text-anchor="middle" x="68" y="-225.39" font-family="Times,serif" font-size="14.00">Program startup</text>
</g>
<!-- no_graphics -->
<g id="node3" class="node">
<title>no_graphics</title>
<ellipse fill="none" stroke="black" cx="500.33" cy="-229.09" rx="57.69" ry="18"/>
<text text-anchor="middle" x="500.33" y="-225.39" font-family="Times,serif" font-size="14.00">App ready</text>
</g>
<!-- _start&#45;&gt;no_graphics -->
<g id="edge1" class="edge">
<title>_start&#45;&gt;no_graphics</title>
<path fill="none" stroke="black" d="M136.03,-229.09C216.98,-229.09 351.35,-229.09 432.3,-229.09"/>
<polygon fill="black" stroke="black" points="432.39,-232.59 442.39,-229.09 432.39,-225.59 432.39,-232.59"/>
<text text-anchor="middle" x="255.16" y="-232.89" font-family="monospace" font-size="14.00">.init()</text>
</g>
<!-- _end -->
<g id="node2" class="node">
<title>_end</title>
<text text-anchor="middle" x="500.33" y="-14.3" font-family="Times,serif" font-size="14.00">Program shutdown</text>
</g>
<!-- no_graphics&#45;&gt;_end -->
<g id="edge2" class="edge">
<title>no_graphics&#45;&gt;_end</title>
<path fill="none" stroke="black" d="M500.33,-210.72C500.33,-173.75 500.33,-90.12 500.33,-46.18"/>
<polygon fill="black" stroke="black" points="503.83,-46.17 500.33,-36.17 496.83,-46.17 503.83,-46.17"/>
<text text-anchor="middle" x="462.83" y="-132.25" font-family="monospace" font-size="14.00">.deinit()</text>
</g>
<!-- no_graphics&#45;&gt;no_graphics -->
<g id="edge3" class="edge">
<title>no_graphics&#45;&gt;no_graphics</title>
<path fill="none" stroke="black" d="M521.78,-245.85C580.01,-282.35 666.18,-276.76 666.18,-229.09 666.18,-183.74 588.22,-176.48 530.49,-207.28"/>
<polygon fill="black" stroke="black" points="528.68,-204.29 521.78,-212.33 532.18,-210.35 528.68,-204.29"/>
<text text-anchor="middle" x="703.68" y="-225.39" font-family="monospace" font-size="14.00">.update()</text>
</g>
<!-- graphics -->
<g id="node4" class="node">
<title>graphics</title>
<ellipse fill="none" stroke="black" cx="500.33" cy="-440.18" rx="81.49" ry="18"/>
<text text-anchor="middle" x="500.33" y="-436.48" font-family="Times,serif" font-size="14.00">Graphics ready</text>
</g>
<!-- no_graphics&#45;&gt;graphics -->
<g id="edge4" class="edge">
<title>no_graphics&#45;&gt;graphics</title>
<path fill="none" stroke="black" d="M477.27,-245.65C455.8,-282.07 454.15,-369.35 472.34,-413.56"/>
<polygon fill="black" stroke="black" points="469.3,-415.32 476.81,-422.81 475.61,-412.28 469.3,-415.32"/>
<text text-anchor="middle" x="408.31" y="-333.4" font-family="monospace" font-size="14.00">.setupGraphics()</text>
</g>
<!-- graphics&#45;&gt;no_graphics -->
<g id="edge5" class="edge">
<title>graphics&#45;&gt;no_graphics</title>
<path fill="none" stroke="black" d="M523.8,-422.9C545.03,-385.83 546.41,-298.47 527.96,-254.83"/>
<polygon fill="black" stroke="black" points="531.01,-253.12 523.43,-245.72 524.74,-256.23 531.01,-253.12"/>
<text text-anchor="middle" x="604.38" y="-342.66" font-family="monospace" font-size="14.00">.teardownGraphics()</text>
</g>
<!-- graphics&#45;&gt;graphics -->
<g id="edge6" class="edge">
<title>graphics&#45;&gt;graphics</title>
<path fill="none" stroke="black" d="M564.8,-451.14C624.75,-456.73 689.57,-453.08 689.57,-440.18 689.57,-428 631.89,-424.06 575.02,-428.35"/>
<polygon fill="black" stroke="black" points="574.47,-424.89 564.8,-429.21 575.06,-431.86 574.47,-424.89"/>
<text text-anchor="middle" x="727.07" y="-436.48" font-family="monospace" font-size="14.00">.resize()</text>
</g>
<!-- graphics&#45;&gt;graphics -->
<g id="edge7" class="edge">
<title>graphics&#45;&gt;graphics</title>
<path fill="none" stroke="black" d="M546.17,-455.21C688.45,-493.6 905.57,-488.59 905.57,-440.18 905.57,-392.85 698.09,-387 555.87,-422.62"/>
<polygon fill="black" stroke="black" points="554.97,-419.24 546.17,-425.14 556.73,-426.01 554.97,-419.24"/>
<text text-anchor="middle" x="943.07" y="-436.48" font-family="monospace" font-size="14.00">.render()</text>
</g>
<!-- graphics&#45;&gt;graphics -->
<g id="edge8" class="edge">
<title>graphics&#45;&gt;graphics</title>
<path fill="none" stroke="black" d="M551.82,-454.2C655.52,-475.33 797.57,-470.66 797.57,-440.18 797.57,-410.65 664.26,-405.34 561.65,-424.25"/>
<polygon fill="black" stroke="black" points="560.97,-420.82 551.82,-426.16 562.3,-427.69 560.97,-420.82"/>
<text text-anchor="middle" x="835.07" y="-436.48" font-family="monospace" font-size="14.00">.update()</text>
</g>
</g>
</svg>
